<svg width="32" height="32" viewBox="0 0 32 32" fill="none" xmlns="http://www.w3.org/2000/svg">
<g clip-path="url(#clip0_84_193)">
<mask id="mask0_84_193" style="mask-type:luminance" maskUnits="userSpaceOnUse" x="0" y="0" width="32" height="32">
<path d="M0.66333 0.66333H31.3352V31.3353H0.66333V0.66333Z" fill="white"/>
</mask>
<g mask="url(#mask0_84_193)">
<path d="M5.26408 0.66333H26.7345C26.8097 0.66333 26.885 0.665163 26.9602 0.66883C27.0354 0.672497 27.1105 0.67808 27.1854 0.685413C27.2604 0.69283 27.3351 0.70208 27.4096 0.71308C27.4841 0.724163 27.5582 0.736997 27.6321 0.751663C27.7059 0.766413 27.7793 0.782913 27.8524 0.801163C27.9254 0.819497 27.998 0.83958 28.07 0.861413C28.1421 0.883247 28.2136 0.90683 28.2844 0.932247C28.3553 0.95758 28.4256 0.984663 28.4952 1.0135C28.5647 1.04233 28.6335 1.07283 28.7016 1.105C28.7697 1.13725 28.8369 1.17108 28.9032 1.20658C28.9697 1.24208 29.0352 1.27916 29.0997 1.31783C29.1643 1.35658 29.2279 1.39683 29.2906 1.43866C29.3532 1.4805 29.4147 1.52383 29.4752 1.56866C29.5357 1.61358 29.595 1.65983 29.6532 1.70766C29.7114 1.75541 29.7684 1.80458 29.8242 1.85516C29.88 1.90566 29.9345 1.95758 29.9877 2.01083C30.041 2.06408 30.0929 2.11858 30.1434 2.17441C30.194 2.23016 30.2432 2.28716 30.2909 2.34541C30.3387 2.40358 30.385 2.46291 30.4299 2.52341C30.4747 2.58391 30.5181 2.64541 30.5599 2.708C30.6017 2.77066 30.642 2.83425 30.6807 2.89883C30.7194 2.96341 30.7565 3.02891 30.792 3.09533C30.8275 3.16166 30.8613 3.22891 30.8936 3.297C30.9257 3.36508 30.9562 3.43391 30.9851 3.50341C31.0139 3.573 31.041 3.64325 31.0663 3.71416C31.0917 3.785 31.1153 3.8565 31.1372 3.92858C31.159 4.00058 31.1791 4.07316 31.1974 4.14616C31.2157 4.21925 31.2322 4.29266 31.2469 4.3665C31.2616 4.44033 31.2744 4.5145 31.2855 4.589C31.2965 4.6635 31.3057 4.73816 31.3132 4.81316C31.3205 4.88808 31.3261 4.96316 31.3297 5.03833C31.3334 5.11358 31.3352 5.18883 31.3352 5.26408V26.7345C31.3352 26.8097 31.3334 26.885 31.3297 26.9602C31.3261 27.0354 31.3205 27.1105 31.3132 27.1854C31.3057 27.2604 31.2965 27.3351 31.2855 27.4096C31.2744 27.4841 31.2616 27.5582 31.2469 27.6321C31.2322 27.7059 31.2157 27.7793 31.1974 27.8524C31.1791 27.9254 31.159 27.998 31.1372 28.07C31.1153 28.1421 31.0917 28.2136 31.0663 28.2844C31.041 28.3553 31.0139 28.4256 30.9851 28.4952C30.9562 28.5647 30.9257 28.6335 30.8936 28.7016C30.8613 28.7697 30.8275 28.8369 30.792 28.9033C30.7565 28.9697 30.7194 29.0352 30.6807 29.0997C30.642 29.1643 30.6017 29.2279 30.5599 29.2906C30.5181 29.3532 30.4747 29.4147 30.4299 29.4752C30.385 29.5357 30.3387 29.595 30.2909 29.6532C30.2432 29.7114 30.194 29.7684 30.1434 29.8242C30.0929 29.88 30.041 29.9345 29.9877 29.9877C29.9345 30.041 29.88 30.0929 29.8242 30.1434C29.7684 30.194 29.7114 30.2432 29.6532 30.2909C29.595 30.3387 29.5357 30.385 29.4752 30.4299C29.4147 30.4747 29.3532 30.5181 29.2906 30.5599C29.2279 30.6017 29.1643 30.642 29.0997 30.6807C29.0352 30.7194 28.9697 30.7565 28.9032 30.792C28.8369 30.8275 28.7697 30.8613 28.7016 30.8936C28.6335 30.9257 28.5647 30.9562 28.4952 30.9851C28.4256 31.0139 28.3553 31.041 28.2844 31.0663C28.2136 31.0917 28.1421 31.1153 28.07 31.1372C27.998 31.159 27.9254 31.1791 27.8524 31.1974C27.7793 31.2157 27.7059 31.2322 27.6321 31.2469C27.5582 31.2616 27.4841 31.2744 27.4096 31.2855C27.3351 31.2965 27.2604 31.3057 27.1854 31.3132C27.1105 31.3205 27.0354 31.3261 26.9602 31.3297C26.885 31.3334 26.8097 31.3353 26.7345 31.3353H5.26408C5.18883 31.3353 5.11358 31.3334 5.03833 31.3297C4.96316 31.3261 4.88808 31.3205 4.81316 31.3132C4.73816 31.3057 4.6635 31.2965 4.589 31.2855C4.5145 31.2744 4.44033 31.2616 4.3665 31.2469C4.29266 31.2322 4.21925 31.2157 4.14616 31.1974C4.07316 31.1791 4.00058 31.159 3.92858 31.1372C3.8565 31.1153 3.785 31.0917 3.71416 31.0663C3.64325 31.041 3.573 31.0139 3.50341 30.9851C3.43391 30.9562 3.36508 30.9257 3.297 30.8936C3.22891 30.8613 3.16166 30.8275 3.09525 30.792C3.02891 30.7565 2.96341 30.7194 2.89883 30.6807C2.83425 30.642 2.77066 30.6017 2.708 30.5599C2.64541 30.5181 2.58391 30.4747 2.52341 30.4299C2.46291 30.385 2.40358 30.3387 2.34533 30.2909C2.28716 30.2432 2.23016 30.194 2.17441 30.1434C2.11858 30.0929 2.06408 30.041 2.01083 29.9877C1.95758 29.9345 1.90566 29.88 1.85508 29.8242C1.80458 29.7684 1.75541 29.7114 1.70766 29.6532C1.65983 29.595 1.61358 29.5357 1.56866 29.4752C1.52383 29.4147 1.4805 29.3532 1.43866 29.2906C1.39683 29.2279 1.35658 29.1643 1.31783 29.0997C1.27916 29.0352 1.24208 28.9697 1.20658 28.9033C1.17108 28.8369 1.13725 28.7697 1.105 28.7016C1.07283 28.6335 1.04233 28.5647 1.0135 28.4952C0.984663 28.4256 0.95758 28.3553 0.932247 28.2844C0.90683 28.2136 0.883247 28.1421 0.861413 28.07C0.83958 27.998 0.819497 27.9254 0.801163 27.8524C0.782913 27.7793 0.766413 27.7059 0.751663 27.6321C0.736997 27.5582 0.724163 27.4841 0.71308 27.4096C0.701997 27.3351 0.69283 27.2604 0.685413 27.1854C0.67808 27.1105 0.672497 27.0354 0.66883 26.9602C0.665163 26.885 0.66333 26.8097 0.66333 26.7345V5.26408C0.66333 5.18883 0.665163 5.11358 0.66883 5.03833C0.672497 4.96316 0.67808 4.88808 0.685413 4.81316C0.69283 4.73816 0.701997 4.6635 0.71308 4.589C0.724163 4.5145 0.736997 4.44033 0.751663 4.3665C0.766413 4.29266 0.782913 4.21925 0.801163 4.14616C0.819497 4.07316 0.83958 4.00058 0.861413 3.92858C0.883247 3.8565 0.90683 3.785 0.932247 3.71416C0.95758 3.64325 0.984663 3.573 1.0135 3.50341C1.04233 3.43391 1.07283 3.36508 1.105 3.297C1.13725 3.22891 1.17108 3.16166 1.20658 3.09533C1.24208 3.02891 1.27916 2.96341 1.31783 2.89883C1.35658 2.83425 1.39683 2.77066 1.43866 2.708C1.4805 2.64541 1.52383 2.58391 1.56866 2.52341C1.61358 2.46291 1.65983 2.40358 1.70766 2.34541C1.75541 2.28716 1.80458 2.23016 1.85508 2.17441C1.90566 2.11858 1.95758 2.06408 2.01083 2.01083C2.06408 1.95758 2.11858 1.90566 2.17441 1.85516C2.23016 1.80458 2.28716 1.75541 2.34533 1.70766C2.40358 1.65983 2.46291 1.61358 2.52341 1.56866C2.58391 1.52383 2.64541 1.4805 2.708 1.43866C2.77066 1.39683 2.83425 1.35658 2.89883 1.31783C2.96341 1.27916 3.02891 1.24208 3.09525 1.20658C3.16166 1.17108 3.22891 1.13725 3.297 1.105C3.36508 1.07283 3.43391 1.04233 3.50341 1.0135C3.573 0.984663 3.64325 0.95758 3.71416 0.932247C3.785 0.90683 3.8565 0.883247 3.92858 0.861413C4.00058 0.83958 4.07316 0.819497 4.14616 0.801163C4.21925 0.782913 4.29266 0.766413 4.3665 0.751663C4.44033 0.736997 4.5145 0.724163 4.589 0.71308C4.6635 0.70208 4.73816 0.69283 4.81316 0.685413C4.88808 0.67808 4.96316 0.672497 5.03833 0.66883C5.11358 0.665163 5.18883 0.66333 5.26408 0.66333Z" fill="white"/>
</g>
<path d="M23.7872 24.6258C26.483 22.1098 27.6811 17.9163 26.9623 13.9026H16.239V18.3357H22.3494C22.1098 19.7734 21.2711 20.9715 20.073 21.7503L23.7872 24.6258Z" fill="#4285F4"/>
<path d="M6.05493 21.0913C6.1531 21.2845 6.2566 21.4749 6.36543 21.6623C6.47435 21.8498 6.58843 22.034 6.70768 22.215C6.82701 22.3959 6.95126 22.5734 7.0806 22.7473C7.20993 22.9213 7.34402 23.0914 7.48301 23.2578C7.62193 23.4241 7.76543 23.5865 7.9136 23.7447C8.06168 23.903 8.21418 24.0569 8.37101 24.2065C8.52785 24.3561 8.68877 24.5012 8.85377 24.6418C9.01876 24.7823 9.1876 24.918 9.36035 25.049C9.53302 25.18 9.70926 25.306 9.8891 25.427C10.0689 25.548 10.252 25.6639 10.4384 25.7745C10.6248 25.8852 10.8141 25.9905 11.0064 26.0905C11.1988 26.1905 11.3938 26.285 11.5914 26.3739C11.7891 26.4628 11.9891 26.5461 12.1915 26.6237C12.3938 26.7014 12.5983 26.7732 12.8047 26.8393C13.0111 26.9054 13.2193 26.9656 13.4291 27.0199C13.6389 27.0742 13.8501 27.1225 14.0627 27.165C14.2753 27.2073 14.4888 27.2436 14.7035 27.274C14.9181 27.3042 15.1334 27.3285 15.3494 27.3465C15.5654 27.3646 15.7818 27.3767 15.9984 27.3825C16.2151 27.3885 16.4318 27.3882 16.6484 27.3819C16.8651 27.3755 17.0813 27.363 17.2973 27.3445C17.5133 27.3259 17.7285 27.3012 17.9431 27.2705C18.1577 27.2397 18.3712 27.2029 18.5837 27.16C18.7962 27.1172 19.0073 27.0685 19.2169 27.0137C19.4267 26.959 19.6347 26.8983 19.841 26.8318C20.0473 26.7653 20.2515 26.693 20.4538 26.6149C20.6559 26.5368 20.8558 26.4531 21.0533 26.3637C21.2508 26.2744 21.4455 26.1795 21.6376 26.0791C21.8298 25.9788 22.0188 25.873 22.205 25.762C22.3911 25.6509 22.5739 25.5346 22.7535 25.4133C22.9331 25.2919 23.1091 25.1655 23.2815 25.0341C23.4539 24.9028 23.6225 24.7666 23.7872 24.6258L20.073 21.7503C16.898 23.847 11.6263 23.0682 9.82902 18.1559L6.05493 21.0913Z" fill="#34A853"/>
<path d="M9.82899 18.1559C9.34974 16.6582 9.34974 15.2804 9.82899 13.7827L6.0549 10.8473C4.67707 13.603 4.25774 17.4969 6.0549 21.0913L9.82899 18.1559Z" fill="#FBBC02"/>
<path d="M9.82902 13.7828C11.147 9.64929 16.7782 7.25304 20.5523 10.7875L23.8471 7.55254C19.1744 3.05962 10.0687 3.23928 6.05493 10.8474L9.82902 13.7828Z" fill="#EA4335"/>
</g>
<defs>
<clipPath id="clip0_84_193">
<rect width="32" height="32" fill="white"/>
</clipPath>
</defs>
</svg>
