<svg xmlns="http://www.w3.org/2000/svg" xmlns:xlink="http://www.w3.org/1999/xlink" version="1.1" id="Capa_1" x="0px" y="0px" viewBox="0 0 210 90" style="enable-background:new 0 0 210 90;" xml:space="preserve">
<style type="text/css">
	.st0{fill:#41ADE2;}
	.st1{fill:#FFFFFF;}
	.st2{fill:#999999;}
	.st3{fill:#EF539E;}
	.st4{fill:#B33E77;}
	.st5{fill:#F598C5;}
	.st6{fill:#36A749;}
	.st7{fill:#297D37;}
	.st8{fill:#5EB96D;}
	.st9{fill:#3182AA;}
	.st10{fill:#8DCEEE;}
	.st11{fill:#BDA732;}
	.st12{fill:#FDEC8E;}
	.st13{fill:#FCDF42;}
</style>
<g>
	<rect x="-1788" y="-226" class="st0" width="149" height="149"/>
</g>
<g>
	<rect x="-1788" y="-44" width="149" height="149"/>
</g>
<g>
	<rect x="-1787.5" y="125.5" class="st1" width="148" height="148"/>
	<path class="st2" d="M-1640,126v147h-147V126H-1640 M-1639,125h-149v149h149V125L-1639,125z"/>
</g>
<g>
	<rect x="-1450" y="-226" class="st3" width="149" height="149"/>
</g>
<g>
	<rect x="-1281" y="-137" class="st4" width="60" height="60"/>
</g>
<g>
	<rect x="-1281" y="-226" class="st5" width="60" height="60"/>
</g>
<g>
	<rect x="-1112" y="-226" class="st6" width="149" height="149"/>
</g>
<g>
	<rect x="-943" y="-137" class="st7" width="60" height="60"/>
</g>
<g>
	<rect x="-943" y="-226" class="st8" width="60" height="60"/>
</g>
<g>
	<rect x="-1619" y="-137" class="st9" width="60" height="60"/>
</g>
<g>
	<rect x="-1619" y="-226" class="st10" width="60" height="60"/>
</g>
<g>
	<rect x="-1281" y="32" class="st11" width="60" height="60"/>
</g>
<g>
	<rect x="-1281" y="-57" class="st12" width="60" height="60"/>
</g>
<g>
	<rect x="-1450" y="-57" class="st13" width="149" height="149"/>
</g>
<path class="st1" d="M5,45v16.9c0,10.8,8.7,19.5,19.5,19.5h31.7V61.9H30.6h0c-3.4,0-6.1-2.7-6.1-6.1l0-0.3V45V34.1h0  c0-3.3,2.7-6.1,6.1-6.1l0,0h25.6V8.6H24.5C13.7,8.6,5,17.3,5,28V45z"/>
<path class="st1" d="M153.8,8.6v53.4c0,10.8,8.7,19.5,19.5,19.5H205V61.9h-25.6h0c-3.4,0-6.1-2.7-6.1-6.1h0V8.6H153.8z"/>
<path class="st1" d="M97.5,81.4V34.1h0c0-3.4-2.7-6.1-6.1-6.1v0H65.8V8.6h31.7c10.8,0,19.5,8.7,19.5,19.5v53.4H97.5z M107.4,8.6  c5,0.6,12.9,9.6,13,19.5l23.7,0.1V8.6H107.4z"/>
</svg>