  <svg
    xmlns="http://www.w3.org/2000/svg"
    viewBox="0 0 24 24"
    fill="currentColor"
    className="w-6 h-6"
    {...props}
  >
    <path d="M12 3.5a.5.5 0 0 1 .5.5v1a.5.5 0 0 1-1 0v-1a.5.5 0 0 1 .5-.5zM12 18a.5.5 0 0 1 .5.5v1a.5.5 0 0 1-1 0v-1a.5.5 0 0 1 .5-.5zM3.5 12a.5.5 0 0 1 .5.5h1a.5.5 0 0 1 0-1h-1a.5.5 0 0 1-.5.5zM18 12a.5.5 0 0 1 .5.5h1a.5.5 0 0 1 0-1h-1a.5.5 0 0 1-.5.5zM5.636 5.636a.5.5 0 0 1 .707-.707l.707.707a.5.5 0 0 1-.707.707l-.707-.707a.5.5 0 0 1 0-.707zM18.364 18.364a.5.5 0 0 1 .707.707l-.707.707a.5.5 0 0 1-.707-.707l.707-.707a.5.5 0 0 1 .707 0zM5.636 18.364a.5.5 0 0 1-.707-.707l.707-.707a.5.5 0 0 1 .707.707l-.707.707a.5.5 0 0 1-.707 0zM18.364 5.636a.5.5 0 0 1-.707-.707l.707-.707a.5.5 0 0 1 .707.707l-.707.707a.5.5 0 0 1-.707 0zM12 7a5 5 0 1 0 0 10 5 5 0 0 0 0-10z" />
  </svg>